<svg width="444" height="79" viewBox="0 0 444 79" fill="none" xmlns="http://www.w3.org/2000/svg">
<path d="M24.04 61.96C20.2533 61.96 16.7333 61.2667 13.48 59.88C10.28 58.4933 7.50667 56.5733 5.16 54.12C2.86667 51.6133 1.18667 48.7067 0.12 45.4L9.16 41.48C10.6 44.8933 12.68 47.5867 15.4 49.56C18.12 51.48 21.1867 52.44 24.6 52.44C26.52 52.44 28.1733 52.1467 29.56 51.56C31 50.92 32.0933 50.0667 32.84 49C33.64 47.9333 34.04 46.6533 34.04 45.16C34.04 43.4 33.5067 41.96 32.44 40.84C31.4267 39.6667 29.88 38.76 27.8 38.12L16.36 34.44C11.72 33 8.22667 30.84 5.88 27.96C3.53333 25.08 2.36 21.6933 2.36 17.8C2.36 14.3867 3.18667 11.3733 4.84 8.76C6.54667 6.14666 8.89333 4.12 11.88 2.68C14.92 1.18666 18.3867 0.439998 22.28 0.439998C25.8533 0.439998 29.1333 1.08 32.12 2.36C35.1067 3.58666 37.6667 5.32 39.8 7.56C41.9867 9.74666 43.6133 12.3333 44.68 15.32L35.72 19.32C34.5467 16.3333 32.7867 14.04 30.44 12.44C28.0933 10.7867 25.3733 9.96 22.28 9.96C20.4667 9.96 18.8667 10.28 17.48 10.92C16.0933 11.5067 15 12.36 14.2 13.48C13.4533 14.5467 13.08 15.8267 13.08 17.32C13.08 18.9733 13.6133 20.44 14.68 21.72C15.7467 22.9467 17.3733 23.9067 19.56 24.6L30.52 28.04C35.2667 29.5867 38.8133 31.72 41.16 34.44C43.56 37.16 44.76 40.52 44.76 44.52C44.76 47.9333 43.88 50.9467 42.12 53.56C40.36 56.1733 37.9333 58.2267 34.84 59.72C31.7467 61.2133 28.1467 61.96 24.04 61.96ZM73.5169 61.48C68.6102 61.48 64.7969 60.1467 62.0769 57.48C59.4102 54.76 58.0769 50.9467 58.0769 46.04V26.84H50.5569V17.48H51.3569C53.4902 17.48 55.1435 16.92 56.3169 15.8C57.4902 14.68 58.0769 13.0533 58.0769 10.92V7.56H68.5569V17.48H78.5569V26.84H68.5569V45.48C68.5569 46.92 68.7969 48.1467 69.2769 49.16C69.8102 50.1733 70.6102 50.9467 71.6769 51.48C72.7969 52.0133 74.2102 52.28 75.9169 52.28C76.2902 52.28 76.7169 52.2533 77.1969 52.2C77.7302 52.1467 78.2369 52.0933 78.7169 52.04V61C77.9702 61.1067 77.1169 61.2133 76.1569 61.32C75.1969 61.4267 74.3169 61.48 73.5169 61.48ZM92.0038 78.68C90.8304 78.68 89.6838 78.5733 88.5638 78.36C87.4438 78.2 86.4304 77.9067 85.5238 77.48V68.68C86.2171 68.84 87.0438 69 88.0038 69.16C89.0171 69.32 89.9504 69.4 90.8038 69.4C93.2038 69.4 94.9371 68.84 96.0038 67.72C97.1238 66.6 98.1104 65.1333 98.9638 63.32L101.844 56.6L101.684 65.4L82.7238 17.48H94.0038L107.284 52.84H103.284L116.484 17.48H127.844L108.884 65.4C107.764 68.2267 106.404 70.6267 104.804 72.6C103.204 74.5733 101.337 76.0667 99.2038 77.08C97.1238 78.1467 94.7238 78.68 92.0038 78.68ZM133.599 61V0.439998H144.079V61H133.599ZM174.395 61.96C169.915 61.96 165.995 60.9467 162.635 58.92C159.275 56.8933 156.662 54.1467 154.795 50.68C152.928 47.2133 151.995 43.3733 151.995 39.16C151.995 34.7867 152.928 30.92 154.795 27.56C156.715 24.1467 159.302 21.4533 162.555 19.48C165.862 17.5067 169.542 16.52 173.595 16.52C177.008 16.52 179.995 17.08 182.555 18.2C185.168 19.32 187.382 20.8667 189.195 22.84C191.008 24.8133 192.395 27.08 193.355 29.64C194.315 32.1467 194.795 34.8667 194.795 37.8C194.795 38.5467 194.742 39.32 194.635 40.12C194.582 40.92 194.448 41.6133 194.235 42.2H160.635V34.2H188.315L183.355 37.96C183.835 35.5067 183.702 33.32 182.955 31.4C182.262 29.48 181.088 27.96 179.435 26.84C177.835 25.72 175.888 25.16 173.595 25.16C171.408 25.16 169.462 25.72 167.755 26.84C166.048 27.9067 164.742 29.5067 163.835 31.64C162.982 33.72 162.662 36.2533 162.875 39.24C162.662 41.9067 163.008 44.28 163.915 46.36C164.875 48.3867 166.262 49.96 168.075 51.08C169.942 52.2 172.075 52.76 174.475 52.76C176.875 52.76 178.902 52.2533 180.555 51.24C182.262 50.2267 183.595 48.8667 184.555 47.16L193.035 51.32C192.182 53.4 190.848 55.24 189.035 56.84C187.222 58.44 185.062 59.6933 182.555 60.6C180.102 61.5067 177.382 61.96 174.395 61.96ZM246.078 61.96C241.811 61.96 237.865 61.1867 234.238 59.64C230.611 58.0933 227.438 55.9333 224.718 53.16C221.998 50.3867 219.865 47.1333 218.318 43.4C216.825 39.6667 216.078 35.5867 216.078 31.16C216.078 26.7333 216.798 22.6533 218.238 18.92C219.731 15.1333 221.811 11.88 224.478 9.16C227.198 6.38666 230.371 4.25333 233.998 2.76C237.625 1.21333 241.571 0.439998 245.838 0.439998C250.105 0.439998 253.918 1.16 257.278 2.6C260.691 4.04 263.571 5.96 265.918 8.36C268.265 10.7067 269.945 13.2933 270.958 16.12L261.278 20.76C260.158 17.6667 258.265 15.16 255.598 13.24C252.931 11.32 249.678 10.36 245.838 10.36C242.105 10.36 238.798 11.24 235.918 13C233.091 14.76 230.878 17.1867 229.278 20.28C227.731 23.3733 226.958 27 226.958 31.16C226.958 35.32 227.758 38.9733 229.358 42.12C231.011 45.2133 233.278 47.64 236.158 49.4C239.038 51.16 242.345 52.04 246.078 52.04C249.118 52.04 251.918 51.4533 254.478 50.28C257.038 49.0533 259.091 47.3467 260.638 45.16C262.185 42.92 262.958 40.28 262.958 37.24V32.68L267.918 37H245.838V27.8H273.838V33.8C273.838 38.3867 273.065 42.44 271.518 45.96C269.971 49.48 267.865 52.44 265.198 54.84C262.585 57.1867 259.625 58.9733 256.318 60.2C253.011 61.3733 249.598 61.96 246.078 61.96ZM297.088 61.96C293.728 61.96 290.794 61.2133 288.288 59.72C285.834 58.2267 283.941 56.1467 282.608 53.48C281.328 50.8133 280.688 47.6933 280.688 44.12V17.48H291.168V43.24C291.168 45.0533 291.514 46.6533 292.208 48.04C292.954 49.3733 293.994 50.44 295.328 51.24C296.714 51.9867 298.261 52.36 299.968 52.36C301.674 52.36 303.194 51.9867 304.528 51.24C305.861 50.44 306.901 49.3467 307.648 47.96C308.394 46.5733 308.768 44.92 308.768 43V17.48H319.248V61H309.328V52.44L310.208 53.96C309.194 56.6267 307.514 58.6267 305.168 59.96C302.874 61.2933 300.181 61.96 297.088 61.96ZM328.989 61V17.48H339.469V61H328.989ZM328.989 12.6V1.39999H339.469V12.6H328.989ZM369.386 61.96C365.172 61.96 361.412 60.9733 358.106 59C354.799 56.9733 352.186 54.2267 350.266 50.76C348.346 47.2933 347.386 43.4533 347.386 39.24C347.386 34.9733 348.346 31.1333 350.266 27.72C352.186 24.3067 354.799 21.5867 358.106 19.56C361.466 17.5333 365.199 16.52 369.306 16.52C372.612 16.52 375.546 17.1867 378.106 18.52C380.719 19.8 382.772 21.6133 384.266 23.96L382.666 26.12V0.439998H393.146V61H383.226V52.6L384.346 54.68C382.852 57.0267 380.772 58.84 378.106 60.12C375.439 61.3467 372.532 61.96 369.386 61.96ZM370.506 52.36C372.906 52.36 375.012 51.8 376.826 50.68C378.639 49.56 380.052 48.0133 381.066 46.04C382.132 44.0667 382.666 41.8 382.666 39.24C382.666 36.7333 382.132 34.4933 381.066 32.52C380.052 30.4933 378.639 28.92 376.826 27.8C375.012 26.68 372.906 26.12 370.506 26.12C368.159 26.12 366.052 26.7067 364.186 27.88C362.319 29 360.852 30.5467 359.786 32.52C358.772 34.44 358.266 36.68 358.266 39.24C358.266 41.8 358.772 44.0667 359.786 46.04C360.852 48.0133 362.319 49.56 364.186 50.68C366.052 51.8 368.159 52.36 370.506 52.36ZM423.536 61.96C419.056 61.96 415.136 60.9467 411.776 58.92C408.416 56.8933 405.802 54.1467 403.936 50.68C402.069 47.2133 401.136 43.3733 401.136 39.16C401.136 34.7867 402.069 30.92 403.936 27.56C405.856 24.1467 408.442 21.4533 411.696 19.48C415.002 17.5067 418.682 16.52 422.736 16.52C426.149 16.52 429.136 17.08 431.696 18.2C434.309 19.32 436.522 20.8667 438.336 22.84C440.149 24.8133 441.536 27.08 442.496 29.64C443.456 32.1467 443.936 34.8667 443.936 37.8C443.936 38.5467 443.882 39.32 443.776 40.12C443.722 40.92 443.589 41.6133 443.376 42.2H409.776V34.2H437.456L432.496 37.96C432.976 35.5067 432.842 33.32 432.096 31.4C431.402 29.48 430.229 27.96 428.576 26.84C426.976 25.72 425.029 25.16 422.736 25.16C420.549 25.16 418.602 25.72 416.896 26.84C415.189 27.9067 413.882 29.5067 412.976 31.64C412.122 33.72 411.802 36.2533 412.016 39.24C411.802 41.9067 412.149 44.28 413.056 46.36C414.016 48.3867 415.402 49.96 417.216 51.08C419.082 52.2 421.216 52.76 423.616 52.76C426.016 52.76 428.042 52.2533 429.696 51.24C431.402 50.2267 432.736 48.8667 433.696 47.16L442.176 51.32C441.322 53.4 439.989 55.24 438.176 56.84C436.362 58.44 434.202 59.6933 431.696 60.6C429.242 61.5067 426.522 61.96 423.536 61.96Z" fill="white"/>
</svg>
